<svg xmlns="http://www.w3.org/2000/svg" width="38" height="40" viewBox="0 0 38 40">
    <g fill="none" fill-rule="evenodd">
        <g fill-rule="nonzero">
            <path fill="#ECECEC" stroke="#E2E2E2" d="M-1320.5.5h1439v39h-1439z"/>
            <path fill="#30A651" d="M0 0h38v40H0z"/>
        </g>
        <path fill="#FFF" d="M26.8 20.319a.723.723 0 0 0-.063-1.058l-7.15-6.059a.914.914 0 0 0-1.163.013l-7.175 6.37a.719.719 0 0 0-.035 1.055l.18.181c.299.301.781.337 1.077.08l.536-.465v6.808c0 .418.35.756.78.756h2.797c.431 0 .781-.338.781-.756v-4.763h3.567v4.763a.725.725 0 0 0 .734.756h2.963c.431 0 .781-.338.781-.756v-6.712l.33.281c.183.156.566.031.856-.278l.204-.216z"/>
    </g>
</svg>
