<svg xmlns="http://www.w3.org/2000/svg" width="60" height="60" viewBox="0 0 60 60">
    <g fill="none" fill-rule="evenodd">
        <path fill="#30A651" fill-rule="nonzero" d="M50.84 17.007a26.043 26.043 0 0 1 4.423 14.549C55.263 46.16 43.246 58 28.421 58 13.597 58 1.58 46.16 1.58 31.556c0-7.23 2.944-13.781 7.716-18.555L0 2l14.596 6.884A27.02 27.02 0 0 1 28.42 5.111c6.614 0 12.669 2.357 17.347 6.264L60 2l-9.16 15.007z" opacity=".702"/>
        <path fill="#FFF" d="M23.424 21.105A.796.796 0 0 0 23 21.8v17.584c0 .443.375.801.837.801.463 0 .838-.358.838-.8V23.21l12.398 7.062-9.117 5.62a.78.78 0 0 0-.25 1.108.86.86 0 0 0 1.157.24l10.253-6.322a.793.793 0 0 0 .384-.687.796.796 0 0 0-.41-.675l-14.824-8.444a.87.87 0 0 0-.842-.008z"/>
    </g>
</svg>
