<?xml version="1.0" encoding="UTF-8"?>
<svg xmlns="http://www.w3.org/2000/svg" xmlns:xlink="http://www.w3.org/1999/xlink" width="57px" height="57px" viewBox="0 0 57 56" version="1.1">
<g id="surface1">
<path style=" stroke:none;fill-rule:nonzero;fill:rgb(40%,40%,40%);fill-opacity:1;" d="M 28.496094 1.058594 C 13.351562 1.058594 1.078125 13.121094 1.078125 27.996094 C 1.078125 42.871094 13.351562 54.929688 28.496094 54.929688 C 43.636719 54.929688 55.914062 42.871094 55.914062 27.996094 C 55.914062 13.121094 43.636719 1.058594 28.496094 1.058594 "/>
<path style=" stroke:none;fill-rule:nonzero;fill:rgb(80%,80%,80%);fill-opacity:1;" d="M 37.761719 14.210938 L 42.265625 14.210938 L 32.425781 25.261719 L 44.003906 40.296875 L 34.9375 40.296875 L 27.839844 31.175781 L 19.714844 40.296875 L 15.207031 40.296875 L 25.734375 28.476562 L 14.628906 14.210938 L 23.921875 14.210938 L 30.339844 22.546875 Z M 36.179688 37.648438 L 38.675781 37.648438 L 22.566406 16.71875 L 19.886719 16.71875 Z M 36.179688 37.648438 "/>
</g>
</svg>
