<?xml version="1.0" encoding="UTF-8"?>
<svg xmlns="http://www.w3.org/2000/svg" xmlns:xlink="http://www.w3.org/1999/xlink" width="57" height="57" viewBox="0 0 57 57" version="1.1">
<g id="surface1">
<path style="fill-rule:nonzero;fill:rgb(80%,80%,80%);fill-opacity:1;stroke-width:1;stroke-linecap:butt;stroke-linejoin:miter;stroke:rgb(0%,0%,0%);stroke-opacity:1;stroke-miterlimit:4;" d="M 39 62.491228 L 215 62.491228 L 215 194.491228 L 39 194.491228 Z M 39 62.491228 " transform="matrix(0.222656,0,0,0.222656,0,0)"/>
<path style="fill-rule:nonzero;fill:rgb(40%,40%,40%);fill-opacity:1;stroke-width:1;stroke-linecap:butt;stroke-linejoin:miter;stroke:rgb(40%,40%,40%);stroke-opacity:1;stroke-miterlimit:4;" d="M 120.105263 2.333333 C 78.982456 4.789474 41.192982 27.736842 19.947368 63.192982 C 2.210526 92.54386 -2.596491 128.438596 6.596491 161.964912 C 14.807018 192.070175 35.315789 219.087719 62.333333 235.736842 C 102.157895 260.087719 153.736842 260.087719 193.561404 235.736842 C 205.315789 228.596491 219.192982 216.192982 226.982456 206.157895 C 246.315789 180.964912 255.701754 151.280702 253.77193 120.631579 C 251.754386 89.017544 239.263158 61.263158 217.052632 39.052632 C 194.736842 16.736842 166.964912 4.350877 135.035088 2.315789 C 130.77193 2.105263 127.035088 1.894737 126.701754 1.894737 C 126.385965 1.894737 123.403509 2.105263 120.087719 2.315789 Z M 166.754386 70.877193 C 187.263158 71.736842 190.789474 72.473684 195.807018 77.175439 C 200.824561 81.77193 203.052632 87.964912 204.245614 100.561404 C 206.263158 122.333333 205.403509 156.192982 202.421053 167.087719 C 199.22807 178.719298 193.245614 183.526316 180.105263 184.596491 C 164.403509 185.982456 116.561404 186.403509 91.578947 185.438596 C 70.333333 184.596491 64.77193 183.403509 59.754386 178.824561 C 52.701754 172.315789 50.578947 160.561404 50.578947 127.894737 C 50.578947 95.22807 52.719298 84 59.982456 77.280702 C 65.210526 72.368421 68.315789 71.736842 90.192982 70.877193 C 114.754386 69.807018 141.877193 69.807018 166.754386 70.877193 Z M 166.754386 70.877193 " transform="matrix(0.222656,0,0,0.222656,0,0)"/>
<path style="fill-rule:nonzero;fill:rgb(40%,40%,40%);fill-opacity:1;stroke-width:1;stroke-linecap:butt;stroke-linejoin:miter;stroke:rgb(40%,40%,40%);stroke-opacity:1;stroke-miterlimit:4;" d="M 108.666667 128.105263 L 108.666667 156.947368 L 132.473684 142.631579 C 145.614035 134.736842 156.298246 128.22807 156.298246 128.105263 C 156.298246 128 145.614035 121.385965 132.473684 113.596491 L 108.666667 99.280702 Z M 108.666667 128.105263 " transform="matrix(0.222656,0,0,0.222656,0,0)"/>
</g>
</svg>
